<mxfile host="app.diagrams.net" modified="2024-06-23T17:36:21.393Z" agent="Mozilla/5.0 (Windows NT 10.0; Win64; x64) AppleWebKit/537.36 (KHTML, like Gecko) Chrome/123.0.0.0 Safari/537.36 OPR/109.0.0.0" etag="ZNUmWLv6o0OboxmGfQHK" version="24.6.2" type="device">
  <diagram name="Página-1" id="WdOf1GR3g08A5DOfquw2">
    <mxGraphModel dx="1814" dy="1703" grid="1" gridSize="10" guides="1" tooltips="1" connect="1" arrows="1" fold="1" page="1" pageScale="1" pageWidth="827" pageHeight="1169" math="0" shadow="0">
      <root>
        <mxCell id="0" />
        <mxCell id="1" parent="0" />
        <mxCell id="2" value="Início" style="rounded=1;absoluteArcSize=1;arcSize=14;whiteSpace=wrap;strokeWidth=2;shape=ellipse;perimeter=ellipsePerimeter;html=1;" parent="1" vertex="1">
          <mxGeometry x="-90" y="49" width="144" height="92" as="geometry" />
        </mxCell>
        <mxCell id="3" value="Tecido a ser cortado" style="rounded=1;absoluteArcSize=1;arcSize=14;whiteSpace=wrap;strokeWidth=2;" parent="1" vertex="1">
          <mxGeometry x="104" y="30" width="162" height="130" as="geometry" />
        </mxCell>
        <mxCell id="3CgLEHt1fUF-ljajVr3z-17" style="edgeStyle=orthogonalEdgeStyle;rounded=0;orthogonalLoop=1;jettySize=auto;html=1;entryX=0;entryY=0.75;entryDx=0;entryDy=0;" parent="1" source="4" target="8" edge="1">
          <mxGeometry relative="1" as="geometry">
            <Array as="points">
              <mxPoint x="411" y="260" />
            </Array>
          </mxGeometry>
        </mxCell>
        <mxCell id="3CgLEHt1fUF-ljajVr3z-20" style="edgeStyle=orthogonalEdgeStyle;rounded=0;orthogonalLoop=1;jettySize=auto;html=1;entryX=0;entryY=0.5;entryDx=0;entryDy=0;" parent="1" source="4" target="5" edge="1">
          <mxGeometry relative="1" as="geometry" />
        </mxCell>
        <mxCell id="4" value="Tecido tem padrão?" style="rhombus;strokeWidth=2;whiteSpace=wrap;" parent="1" vertex="1">
          <mxGeometry x="316" width="189" height="189" as="geometry" />
        </mxCell>
        <mxCell id="5" value="Cortar com molde" style="whiteSpace=wrap;strokeWidth=2;" parent="1" vertex="1">
          <mxGeometry x="802" y="10" width="144" height="102" as="geometry" />
        </mxCell>
        <mxCell id="6" value="Acabamento das bordas" style="whiteSpace=wrap;strokeWidth=2;" parent="1" vertex="1">
          <mxGeometry x="996" y="10" width="186" height="102" as="geometry" />
        </mxCell>
        <mxCell id="7" value="Fim" style="whiteSpace=wrap;strokeWidth=2;shape=ellipse;perimeter=ellipsePerimeter;html=1;" parent="1" vertex="1">
          <mxGeometry x="1241" y="-20" width="227" height="162" as="geometry" />
        </mxCell>
        <mxCell id="3CgLEHt1fUF-ljajVr3z-19" style="edgeStyle=orthogonalEdgeStyle;rounded=0;orthogonalLoop=1;jettySize=auto;html=1;entryX=0.5;entryY=1;entryDx=0;entryDy=0;" parent="1" source="8" target="5" edge="1">
          <mxGeometry relative="1" as="geometry" />
        </mxCell>
        <mxCell id="8" value="Criar padrão" style="whiteSpace=wrap;strokeWidth=2;" parent="1" vertex="1">
          <mxGeometry x="550" y="170" width="170" height="120" as="geometry" />
        </mxCell>
        <mxCell id="9" value="" style="curved=1;startArrow=none;endArrow=block;exitX=1;exitY=0.49;entryX=0;entryY=0.49;" parent="1" source="2" target="3" edge="1">
          <mxGeometry relative="1" as="geometry">
            <Array as="points" />
          </mxGeometry>
        </mxCell>
        <mxCell id="10" value="" style="curved=1;startArrow=none;endArrow=block;exitX=1;exitY=0.49;entryX=0;entryY=0.5;" parent="1" source="3" target="4" edge="1">
          <mxGeometry relative="1" as="geometry">
            <Array as="points" />
          </mxGeometry>
        </mxCell>
        <mxCell id="12" value="" style="curved=1;startArrow=none;endArrow=block;exitX=1;exitY=0.49;entryX=0;entryY=0.49;" parent="1" source="5" target="6" edge="1">
          <mxGeometry relative="1" as="geometry">
            <Array as="points" />
          </mxGeometry>
        </mxCell>
        <mxCell id="13" value="" style="curved=1;startArrow=none;endArrow=block;exitX=1;exitY=0.49;entryX=-0.01;entryY=0.49;" parent="1" source="6" target="7" edge="1">
          <mxGeometry relative="1" as="geometry">
            <Array as="points" />
          </mxGeometry>
        </mxCell>
        <mxCell id="3CgLEHt1fUF-ljajVr3z-18" value="Não" style="text;html=1;align=center;verticalAlign=middle;whiteSpace=wrap;rounded=0;" parent="1" vertex="1">
          <mxGeometry x="430" y="230" width="60" height="30" as="geometry" />
        </mxCell>
        <mxCell id="3CgLEHt1fUF-ljajVr3z-21" value="Sim" style="text;html=1;align=center;verticalAlign=middle;whiteSpace=wrap;rounded=0;" parent="1" vertex="1">
          <mxGeometry x="580" y="49" width="60" height="30" as="geometry" />
        </mxCell>
      </root>
    </mxGraphModel>
  </diagram>
</mxfile>
